<svg xmlns="http://www.w3.org/2000/svg" viewBox="0 0 25 25" class="as-svgicon as-svgicon-applelogo as-svgicon-reduced as-svgicon-applelogoreduced" role="img" aria-hidden="true" width="25px" height="25px"><path fill="none" d="M0 0h25v25H0z"></path><path d="M18.4 8.146a3.5 3.5 0 0 0-1.675 2.948 3.411 3.411 0 0 0 2.075 3.129 8.151 8.151 0 0 1-1.063 2.2c-.662.953-1.354 1.905-2.407 1.905s-1.324-.612-2.537-.612c-1.183 0-1.6.632-2.567.632s-1.634-.882-2.407-1.965A9.5 9.5 0 0 1 6.2 11.255c0-3.008 1.955-4.6 3.881-4.6 1.023 0 1.875.672 2.517.672.612 0 1.564-.712 2.727-.712A3.648 3.648 0 0 1 18.4 8.146ZM12.68 6.442a1.152 1.152 0 0 1-.211-.02 1.376 1.376 0 0 1-.03-.281 3.362 3.362 0 0 1 .852-2.1 3.464 3.464 0 0 1 2.276-1.173 1.486 1.486 0 0 1 .03.311 3.458 3.458 0 0 1-.822 2.156 3 3 0 0 1-2.095 1.107Z"></path></svg>